<svg 
 xmlns="http://www.w3.org/2000/svg"
 xmlns:xlink="http://www.w3.org/1999/xlink"
 width="61px" height="61px">
<path fill-rule="evenodd"  fill="rgb(50, 142, 1)"
 d="M30.320,60.960 C13.596,60.960 0.39,47.403 0.39,30.679 C0.39,13.955 13.596,0.399 30.320,0.399 C47.44,0.399 60.601,13.955 60.601,30.679 C60.601,47.403 47.44,60.960 30.320,60.960 ZM30.320,4.830 C16.43,4.830 4.470,16.403 4.470,30.679 C4.470,44.955 16.43,56.528 30.320,56.528 C44.596,56.528 56.170,44.955 56.170,30.679 C56.170,16.403 44.596,4.830 30.320,4.830 ZM42.137,43.235 L18.503,43.235 C17.279,43.235 16.287,42.243 16.287,41.19 C16.287,39.795 17.279,38.803 18.503,38.803 L42.137,38.803 C43.361,38.803 44.353,39.795 44.353,41.19 C44.353,42.243 43.361,43.235 42.137,43.235 ZM42.137,32.895 L18.503,32.895 C17.279,32.895 16.287,31.903 16.287,30.679 C16.287,29.455 17.279,28.464 18.503,28.464 L42.137,28.464 C43.361,28.464 44.353,29.455 44.353,30.679 C44.353,31.903 43.361,32.895 42.137,32.895 ZM42.137,22.555 L18.503,22.555 C17.279,22.555 16.287,21.563 16.287,20.339 C16.287,19.115 17.279,18.124 18.503,18.124 L42.137,18.124 C43.361,18.124 44.353,19.115 44.353,20.339 C44.353,21.563 43.361,22.555 42.137,22.555 Z"/>
</svg>