<svg 
 xmlns="http://www.w3.org/2000/svg"
 xmlns:xlink="http://www.w3.org/1999/xlink"
 width="61px" height="61px">
<path fill-rule="evenodd"  fill="rgb(50, 142, 1)"
 d="M30.320,60.960 C13.596,60.960 0.39,47.403 0.39,30.679 C0.39,13.955 13.596,0.398 30.320,0.398 C47.44,0.398 60.601,13.955 60.601,30.679 C60.601,47.403 47.44,60.960 30.320,60.960 ZM30.320,4.829 C16.43,4.829 4.470,16.403 4.470,30.679 C4.470,44.956 16.43,56.529 30.320,56.529 C44.596,56.529 56.170,44.956 56.170,30.679 C56.170,16.403 44.596,4.829 30.320,4.829 ZM37.431,36.244 L29.857,28.697 L22.283,36.269 C21.311,37.241 19.717,37.241 18.745,36.269 C17.774,35.298 17.774,33.704 18.745,32.732 L28.88,23.392 C28.561,22.918 29.184,22.669 29.857,22.669 C30.529,22.669 31.152,22.943 31.626,23.392 L40.968,32.707 C41.442,33.206 41.691,33.853 41.691,34.476 C41.691,35.124 41.442,35.746 40.968,36.244 C39.997,37.216 38.402,37.216 37.431,36.244 Z"/>
</svg>